<svg width="60" height="52" viewBox="0 0 60 52" fill="none" xmlns="http://www.w3.org/2000/svg">
<path d="M34.9193 0L17.0999 0C15.9547 0 15.3667 1.37135 16.1561 2.20096L29.2249 15.9349C30.0143 16.7645 29.4263 18.1358 28.2811 18.1358L1.30285 18.1358C0.583305 18.1358 0 18.7192 0 19.4387L0 32.7019C0 33.4214 0.583303 34.0047 1.30285 34.0047L28.1618 34.0047C29.3242 34.0047 29.9048 35.4116 29.0806 36.2313L16.3004 48.9424C15.4762 49.7621 16.0567 51.169 17.2192 51.169L34.9193 51.169C35.2736 51.169 35.6127 51.0247 35.8583 50.7693L59.2132 26.4877C59.6983 25.9833 59.6983 25.1857 59.2132 24.6813L35.8583 0.399689C35.6127 0.144316 35.2736 0 34.9193 0Z" fill="white"/>
</svg>
