<svg width="1680" height="359" viewBox="0 0 1680 359" fill="none" xmlns="http://www.w3.org/2000/svg">
<path fill-rule="evenodd" clip-rule="evenodd" d="M0 2.85783H78.5285C108.692 2.85783 131.747 10.558 147.696 25.9586C163.644 41.3592 171.618 62.8721 171.618 90.498V249.108C171.618 280.861 163.211 304.28 146.396 319.363C129.581 334.446 105.398 341.987 73.848 341.987H0V2.85783ZM53.0457 296.262H77.4883C92.3967 296.262 102.971 292.848 109.212 286.021C115.452 279.194 118.573 268.477 118.573 253.871V90.498C118.573 77.1614 115.626 66.8415 109.732 59.5381C103.838 52.2348 93.0901 48.5831 77.4883 48.5831H53.0457V296.262ZM218.424 82.8771C218.424 69.223 221.024 57.1567 226.224 46.6779C231.425 36.1991 238.272 27.5464 246.767 20.7193C255.261 13.8922 264.795 8.73228 275.37 5.23936C285.944 1.74643 296.605 0 307.353 0C318.101 0 328.762 1.74643 339.337 5.23936C349.911 8.73228 359.445 13.8922 367.94 20.7193C376.434 27.5464 383.281 36.1991 388.482 46.6779C393.682 57.1567 396.283 69.223 396.283 82.8771V261.968C396.283 275.94 393.682 288.085 388.482 298.405C383.281 308.725 376.434 317.299 367.94 324.126C359.445 330.953 349.911 336.113 339.337 339.606C328.762 343.099 318.101 344.845 307.353 344.845C296.605 344.845 285.944 343.099 275.37 339.606C264.795 336.113 255.261 330.953 246.767 324.126C238.272 317.299 231.425 308.725 226.224 298.405C221.024 288.085 218.424 275.94 218.424 261.968V82.8771ZM271.469 261.968C271.469 273.717 275.023 282.37 282.13 287.926C289.238 293.483 297.645 296.262 307.353 296.262C317.061 296.262 325.468 293.483 332.576 287.926C339.683 282.37 343.237 273.717 343.237 261.968V82.8771C343.237 71.1282 339.683 62.4754 332.576 56.9185C325.468 51.3615 317.061 48.5831 307.353 48.5831C297.645 48.5831 289.238 51.3615 282.13 56.9185C275.023 62.4754 271.469 71.1282 271.469 82.8771V261.968ZM443.088 2.85783H520.576C537.565 2.85783 552.039 5.23933 564.001 10.0024C575.962 14.7655 585.756 21.1162 593.384 29.0546C601.011 36.9931 606.472 46.1222 609.766 56.4422C613.059 66.7622 614.706 77.4789 614.706 88.5928V100.977C614.706 110.185 613.926 117.965 612.366 124.316C610.806 130.666 608.466 136.223 605.345 140.986C602.225 145.749 598.411 149.957 593.904 153.608C589.397 157.26 584.196 160.674 578.302 163.849C590.784 169.247 599.971 177.265 605.865 187.902C611.759 198.54 614.706 212.75 614.706 230.532V249.584C614.706 279.433 606.819 302.295 591.044 318.172C575.269 334.049 550.046 341.987 515.376 341.987H443.088V2.85783ZM496.133 293.404H519.016C529.764 293.404 538.171 291.975 544.239 289.117C550.306 286.259 554.9 282.29 558.02 277.21C561.141 272.129 563.047 266.096 563.741 259.11C564.434 252.124 564.781 244.503 564.781 236.247C564.781 227.674 564.261 220.212 563.221 213.861C562.181 207.51 560.014 202.192 556.72 197.905C553.426 193.618 548.833 190.363 542.939 188.141C537.045 185.918 529.244 184.806 519.536 184.806H496.133V293.404ZM496.133 141.939H520.056C537.738 141.939 549.613 137.89 555.68 129.793C561.747 121.696 564.781 109.868 564.781 94.3084C564.781 79.0666 561.401 67.6354 554.64 60.0145C547.879 52.3935 535.658 48.5831 517.976 48.5831H496.133V141.939ZM717.677 154.323H747.841C757.202 154.323 764.656 153.132 770.203 150.751C775.75 148.369 779.997 144.956 782.944 140.51C785.891 136.064 787.885 130.587 788.925 124.077C789.965 117.568 790.485 110.027 790.485 101.453C790.485 92.8795 789.965 85.3381 788.925 78.8285C787.885 72.319 785.718 66.7621 782.424 62.1578C779.131 57.5535 774.537 54.14 768.643 51.9173C762.749 49.6945 754.948 48.5831 745.24 48.5831H717.677V154.323ZM664.632 2.85783H749.921C812.328 2.85783 843.531 36.0401 843.531 102.406C843.531 122.093 840.151 139.002 833.39 153.132C826.629 167.263 814.755 178.614 797.766 187.188L854.972 341.987H798.806L749.401 197.19H717.677V341.987H664.632V2.85783ZM883.055 82.8771C883.055 69.223 885.655 57.1567 890.856 46.6779C896.057 36.1991 902.904 27.5464 911.398 20.7193C919.892 13.8922 929.427 8.73228 940.001 5.23936C950.576 1.74643 961.237 0 971.985 0C982.733 0 993.394 1.74643 1003.97 5.23936C1014.54 8.73228 1024.08 13.8922 1032.57 20.7193C1041.07 27.5464 1047.91 36.1991 1053.11 46.6779C1058.31 57.1567 1060.91 69.223 1060.91 82.8771V261.968C1060.91 275.94 1058.31 288.085 1053.11 298.405C1047.91 308.725 1041.07 317.299 1032.57 324.126C1024.08 330.953 1014.54 336.113 1003.97 339.606C993.394 343.099 982.733 344.845 971.985 344.845C961.237 344.845 950.576 343.099 940.001 339.606C929.427 336.113 919.892 330.953 911.398 324.126C902.904 317.299 896.057 308.725 890.856 298.405C885.655 288.085 883.055 275.94 883.055 261.968V82.8771ZM936.101 261.968C936.101 273.717 939.654 282.37 946.762 287.926C953.869 293.483 962.277 296.262 971.985 296.262C981.693 296.262 990.1 293.483 997.207 287.926C1004.31 282.37 1007.87 273.717 1007.87 261.968V82.8771C1007.87 71.1282 1004.31 62.4754 997.207 56.9185C990.1 51.3615 981.693 48.5831 971.985 48.5831C962.277 48.5831 953.869 51.3615 946.762 56.9185C939.654 62.4754 936.101 71.1282 936.101 82.8771V261.968ZM1107.72 2.85783H1160.77V293.404H1265.82V341.987H1107.72V2.85783ZM1508.38 2.85783H1585.87C1602.86 2.85783 1617.33 5.23933 1629.29 10.0024C1641.26 14.7655 1651.05 21.1162 1658.68 29.0546C1666.31 36.9931 1671.77 46.1222 1675.06 56.4422C1678.35 66.7622 1680 77.4789 1680 88.5928V100.977C1680 110.185 1679.22 117.965 1677.66 124.316C1676.1 130.666 1673.76 136.223 1670.64 140.986C1667.52 145.749 1663.7 149.957 1659.2 153.608C1654.69 157.26 1649.49 160.674 1643.6 163.849C1656.08 169.247 1665.27 177.265 1671.16 187.902C1677.05 198.54 1680 212.75 1680 230.532V249.584C1680 279.433 1672.11 302.295 1656.34 318.172C1640.56 334.049 1615.34 341.987 1580.67 341.987H1508.38V2.85783ZM1560.65 293.404H1583.53C1594.28 293.404 1602.69 291.975 1608.75 289.117C1614.82 286.259 1619.41 282.29 1622.54 277.21C1625.66 272.129 1627.56 266.096 1628.26 259.11C1628.95 252.124 1629.3 244.503 1629.3 236.247C1629.3 227.674 1628.78 220.212 1627.74 213.861C1626.7 207.51 1624.53 202.192 1621.24 197.905C1617.94 193.618 1613.35 190.363 1607.45 188.141C1601.56 185.918 1593.76 184.806 1584.05 184.806H1560.65V293.404ZM1560.65 141.939H1584.57C1602.25 141.939 1614.13 137.89 1620.2 129.793C1626.26 121.696 1629.3 109.868 1629.3 94.3084C1629.3 79.0666 1625.92 67.6354 1619.15 60.0145C1612.39 52.3935 1600.17 48.5831 1582.49 48.5831H1560.65V141.939Z" fill="#1F1F1F"/>
<path fill-rule="evenodd" clip-rule="evenodd" d="M1406.09 293.331L1422.11 348.594L1381.68 358.606L1365.57 303.01L1297.28 341.369V0L1491.12 293.331H1406.09ZM1344.14 156.696V261.29L1401.54 248.05L1344.14 156.696Z" fill="#39C80C"/>
</svg>
